<?xml version="1.0" standalone="no"?>
<!DOCTYPE svg PUBLIC "-//W3C//DTD SVG 20010904//EN"
 "http://www.w3.org/TR/2001/REC-SVG-20010904/DTD/svg10.dtd">
<svg version="1.0" xmlns="http://www.w3.org/2000/svg"
 width="360.000000pt" height="360.000000pt" viewBox="0 0 360.000000 360.000000"
 preserveAspectRatio="xMidYMid meet">

<g transform="translate(0.000000,360.000000) scale(0.100000,-0.100000)"
fill="#000000" stroke="none">
<path d="M1886 2372 l239 -209 100 -8 c147 -11 216 -35 280 -99 70 -70 97
-141 98 -256 1 -201 -90 -315 -282 -356 -36 -7 -96 -14 -133 -14 l-68 0 0 283
0 283 -150 137 c-82 75 -151 137 -154 137 -2 0 0 -17 6 -37 6 -21 11 -74 12
-118 0 -93 -20 -162 -68 -233 l-32 -48 43 -33 c51 -39 95 -104 120 -175 26
-75 24 -260 -5 -338 -35 -95 -96 -172 -187 -232 l-40 -26 265 0 c388 0 589 21
722 75 147 60 304 203 378 345 62 120 83 227 77 385 -8 220 -64 352 -212 501
-94 95 -172 147 -281 185 -134 46 -181 51 -583 56 l-384 5 239 -210z"/>
</g>
</svg>
